<?xml version="1.0" encoding="UTF-8" standalone="no"?>
<svg
    class="css-1j8o68f"
    id="svg23"
    version="1.1"
    width="128"
    height="128"
    viewBox="0 0 128 128"
    xmlns="http://www.w3.org/2000/svg"
    sodipodi:docname="logo.svg"
    xmlns:xlink="http://www.w3.org/1999/xlink"
    xmlns:inkscape="http://www.inkscape.org/namespaces/inkscape"
    xmlns:sodipodi="http://sodipodi.sourceforge.net/DTD/sodipodi-0.dtd"
    xmlns:svg="http://www.w3.org/2000/svg"
    xmlns:svgjs="http://svgjs.dev/svgjs"
>
    <sodipodi:namedview
        id="namedview25"
        pagecolor="#ffffff"
        bordercolor="#000000"
        borderopacity="0.25"
        inkscape:showpageshadow="2"
        inkscape:pageopacity="0.0"
        inkscape:pagecheckerboard="0"
        inkscape:deskcolor="#d1d1d1"
    />
    <defs id="SvgjsDefs2684" />
    <g transform="matrix(0.8046875,0,0,0.8046875,12.760752631578946,31.609290028593733)">
        <svg viewBox="0 0 95 60" data-background-color="#ffffff" preserveAspectRatio="xMidYMid meet"
            height="80" width="128" xmlns="http://www.w3.org/2000/svg"
            xmlns:xlink="http://www.w3.org/1999/xlink">
            <g id="tight-bounds"
                transform="matrix(1,0,0,1,-0.24049999999999727,0.18939958500001808)">
                <svg viewBox="0 0 95.481 59.62120082999997" height="59.62120082999997"
                    width="95.481">
                    <g>
                        <svg viewBox="0 0 95.481 59.62120082999997" height="59.62120082999997"
                            width="95.481">
                            <g>
                                <svg viewBox="0 0 95.481 59.62120082999997"
                                    height="59.62120082999997" width="95.481">
                                    <g id="textblocktransform">
                                        <svg viewBox="0 0 95.481 59.62120082999997"
                                            height="59.62120082999997" width="95.481" id="textblock">
                                            <g>
                                                <svg viewBox="0 0 95.481 59.62120082999997"
                                                    height="59.62120082999997" width="95.481">
                                                    <g>
                                                        <svg viewBox="0 0 95.481 59.62120082999997"
                                                            height="59.62120082999997"
                                                            width="95.481">
                                                            <g>
                                                                <svg
                                                                    xmlns="http://www.w3.org/2000/svg"
                                                                    xmlns:xlink="http://www.w3.org/1999/xlink"
                                                                    version="1.1" x="0" y="0"
                                                                    viewBox="0 18.788999999999998 100.00000000000001 62.442999999999984"
                                                                    enable-background="new 0 0 100 100"
                                                                    xml:space="preserve"
                                                                    width="95.481"
                                                                    height="59.62120082999997"
                                                                    class="icon-icon-0"
                                                                    data-fill-palette-color="accent"
                                                                    id="icon-0"><g fill="#ed1703" data-fill-palette-color="accent"><g fill="#ed1703" data-fill-palette-color="accent"><path d="M97.938 68.771h-6.316V20.81c0-1.115-0.905-2.021-2.021-2.021H10.399c-1.115 0-2.021 0.906-2.021 2.021v47.961H2.062C0.924 68.771 0 69.694 0 70.832v2.084c0 0.103 0.008 0.204 0.022 0.306 0.527 3.521 3.348 7.447 7.159 7.922 0.083 0.01 0.169 0.017 0.252 0.017l84.51 0.071h0.003c4.404 0 7.604-4.197 8.041-8.085 0.009-0.075 0.013-0.152 0.013-0.23v-2.084C100 69.694 99.076 68.771 97.938 68.771zM12.42 22.831h75.16v45.939H59.985c-0.133 0-0.262 0.016-0.386 0.04H41.16c-0.128-0.025-0.261-0.04-0.396-0.04H12.42V22.831zM91.948 77.107L7.586 77.036c-1.461-0.261-3.024-2.16-3.434-4.143h35.086c0.702 1.246 2.017 2.085 3.519 2.085h15.233c1.502 0 2.816-0.839 3.52-2.085h34.35C95.538 74.926 93.854 77.107 91.948 77.107zM38.84 37.498c-0.814-0.814-2.133-0.814-2.947 0l-8.689 8.689c-0.814 0.814-0.814 2.133 0 2.948l8.689 8.688c0.407 0.407 0.94 0.611 1.474 0.611s1.066-0.204 1.474-0.611c0.814-0.813 0.814-2.133 0-2.947l-7.216-7.215 7.216-7.216C39.654 39.631 39.654 38.312 38.84 37.498zM59.361 57.823c0.406 0.407 0.939 0.611 1.474 0.611 0.533 0 1.066-0.204 1.474-0.611l8.688-8.688c0.814-0.814 0.814-2.133 0-2.948l-8.688-8.689c-0.814-0.814-2.134-0.814-2.947 0-0.814 0.814-0.814 2.133 0 2.947l7.215 7.216-7.215 7.215C58.547 55.69 58.547 57.01 59.361 57.823zM41.793 62.275c0.299 0.148 0.617 0.22 0.931 0.22 0.765 0 1.5-0.422 1.866-1.152l12.506-25.011c0.515-1.03 0.098-2.281-0.933-2.796-1.029-0.513-2.281-0.098-2.797 0.932L40.861 59.479C40.346 60.509 40.763 61.76 41.793 62.275z" fill="#ed1703" data-fill-palette-color="accent"></path></g></g></svg>
                                                            </g>
                                                        </svg>
                                                    </g>
                                                </svg>
                                            </g>
                                        </svg>
                                    </g>
                                </svg>
                            </g>
                            <g></g>
                        </svg>
                    </g>
                    <defs></defs>
                </svg>
                <rect width="95.481" height="59.62120082999997" fill="none" stroke="none"
                    visibility="hidden"></rect>
            </g>
        </svg>
    </g>
</svg>